<?xml version="1.0" standalone="no"?>
<!DOCTYPE svg PUBLIC "-//W3C//DTD SVG 20010904//EN"
 "http://www.w3.org/TR/2001/REC-SVG-20010904/DTD/svg10.dtd">
<svg version="1.0" xmlns="http://www.w3.org/2000/svg"
 width="35pt" height="35pt" viewBox="0 0 300.000000 300.000000"
 preserveAspectRatio="xMidYMid meet">
<metadata>
Created by potrace 1.10, written by Peter Selinger 2001-2011
</metadata>
<g transform="translate(0.000000,300.000000) scale(0.100000,-0.100000)"
fill="#000000" stroke="none">
<path d="M1685 2848 c-45 -53 -202 -285 -320 -473 -48 -77 -136 -211 -197
-299 -127 -184 -133 -195 -111 -226 15 -21 21 -22 79 -17 l64 6 -21 -42 c-35
-68 -196 -350 -213 -372 -15 -18 -15 -15 -10 50 6 66 5 73 -20 102 -49 59
-174 67 -333 23 -94 -26 -99 -25 -71 9 201 248 354 426 468 546 77 82 140 152
140 157 0 39 -123 -53 -276 -206 -110 -110 -394 -441 -451 -525 -38 -56 -27
-111 23 -111 12 0 71 16 131 36 74 25 133 38 189 42 101 6 124 -4 124 -55 0
-94 -144 -426 -274 -633 -69 -108 -78 -143 -43 -164 12 -8 22 -8 35 0 37 23
456 710 662 1086 l53 97 76 32 c42 17 128 53 193 80 64 27 122 49 129 49 7 0
-66 -80 -162 -177 -96 -98 -205 -218 -241 -268 -128 -172 -186 -327 -143 -375
23 -26 61 -25 161 1 140 36 1036 340 1111 376 75 36 109 63 81 63 -73 0 -253
-51 -673 -190 -611 -202 -615 -204 -615 -177 0 28 80 176 139 257 36 49 159
181 291 311 125 125 231 236 234 247 11 33 -10 62 -43 62 -32 0 -141 -40 -324
-119 -108 -46 -147 -59 -147 -47 0 3 44 85 97 183 98 181 292 573 310 628 15
45 0 75 -36 75 -22 0 -38 -10 -66 -42z m-136 -355 c-13 -35 -257 -491 -281
-525 -18 -25 -92 -57 -105 -44 -3 2 26 49 65 103 38 54 122 181 187 283 117
185 134 210 141 210 2 0 -1 -12 -7 -27z"/>
</g>
</svg>
